<mxfile host="65bd71144e">
    <diagram id="gRkTt9VSqE6bFtGnqSjC" name="Page-1">
        <mxGraphModel dx="781" dy="1840" grid="1" gridSize="10" guides="1" tooltips="1" connect="1" arrows="1" fold="1" page="1" pageScale="1" pageWidth="850" pageHeight="1100" math="0" shadow="0">
            <root>
                <mxCell id="0"/>
                <mxCell id="1" parent="0"/>
                <mxCell id="69" value="" style="rounded=0;whiteSpace=wrap;html=1;fillColor=none;dashed=1;" vertex="1" parent="1">
                    <mxGeometry x="70" y="-750.13" width="610" height="120" as="geometry"/>
                </mxCell>
                <mxCell id="51" value="" style="rounded=0;whiteSpace=wrap;html=1;fillColor=none;dashed=1;" parent="1" vertex="1">
                    <mxGeometry x="75" y="-560" width="625" height="120" as="geometry"/>
                </mxCell>
                <mxCell id="4" value="" style="edgeStyle=none;html=1;entryX=0.427;entryY=-0.047;entryDx=0;entryDy=0;entryPerimeter=0;exitX=0.5;exitY=1;exitDx=0;exitDy=0;" parent="1" source="5" target="15" edge="1">
                    <mxGeometry relative="1" as="geometry">
                        <mxPoint x="410" y="-670" as="targetPoint"/>
                    </mxGeometry>
                </mxCell>
                <mxCell id="66" value="Generate" style="edgeLabel;html=1;align=center;verticalAlign=middle;resizable=0;points=[];" parent="4" vertex="1" connectable="0">
                    <mxGeometry x="-0.0835" y="1" relative="1" as="geometry">
                        <mxPoint as="offset"/>
                    </mxGeometry>
                </mxCell>
                <mxCell id="5" value="&amp;nbsp;Micro FE CLI" style="shape=process;whiteSpace=wrap;html=1;backgroundOutline=1;fillColor=#647687;strokeColor=#314354;fontColor=#ffffff;" parent="1" vertex="1">
                    <mxGeometry x="201" y="-890" width="360" height="60" as="geometry"/>
                </mxCell>
                <mxCell id="6" value="Product Example&lt;br&gt;Config" style="text;html=1;strokeColor=none;fillColor=none;align=center;verticalAlign=middle;whiteSpace=wrap;rounded=0;" parent="1" vertex="1">
                    <mxGeometry x="300" y="-1000" width="100" height="30" as="geometry"/>
                </mxCell>
                <mxCell id="7" value="" style="endArrow=classic;html=1;exitX=0.5;exitY=1;exitDx=0;exitDy=0;entryX=0.5;entryY=0;entryDx=0;entryDy=0;" parent="1" source="19" target="5" edge="1">
                    <mxGeometry width="50" height="50" relative="1" as="geometry">
                        <mxPoint x="420" y="-960" as="sourcePoint"/>
                        <mxPoint x="410" y="-890" as="targetPoint"/>
                    </mxGeometry>
                </mxCell>
                <mxCell id="60" style="edgeStyle=none;html=1;entryX=0.101;entryY=0;entryDx=0;entryDy=0;entryPerimeter=0;" parent="1" source="14" target="51" edge="1">
                    <mxGeometry relative="1" as="geometry"/>
                </mxCell>
                <mxCell id="14" value="BookStore&lt;br&gt;App" style="whiteSpace=wrap;html=1;aspect=fixed;fillColor=#f0a30a;strokeColor=#BD7000;fontColor=#000000;" parent="1" vertex="1">
                    <mxGeometry x="90" y="-740" width="100" height="100" as="geometry"/>
                </mxCell>
                <mxCell id="62" style="edgeStyle=none;html=1;" parent="1" source="15" target="55" edge="1">
                    <mxGeometry relative="1" as="geometry"/>
                </mxCell>
                <mxCell id="15" value="Product&amp;nbsp;&lt;br&gt;Example&lt;br&gt;(SubApp)" style="whiteSpace=wrap;html=1;aspect=fixed;fillColor=#f0a30a;strokeColor=#BD7000;fontColor=#000000;" parent="1" vertex="1">
                    <mxGeometry x="261.25" y="-741.63" width="100" height="100" as="geometry"/>
                </mxCell>
                <mxCell id="63" style="edgeStyle=none;html=1;" parent="1" source="16" target="57" edge="1">
                    <mxGeometry relative="1" as="geometry"/>
                </mxCell>
                <mxCell id="16" value="Cart&lt;br&gt;Example&lt;br&gt;(SubApp)" style="whiteSpace=wrap;html=1;aspect=fixed;fillColor=#f0a30a;strokeColor=#BD7000;fontColor=#000000;" parent="1" vertex="1">
                    <mxGeometry x="418.75" y="-740" width="99.38" height="99.38" as="geometry"/>
                </mxCell>
                <mxCell id="64" style="edgeStyle=none;html=1;entryX=0.427;entryY=0.014;entryDx=0;entryDy=0;entryPerimeter=0;" parent="1" source="17" target="58" edge="1">
                    <mxGeometry relative="1" as="geometry"/>
                </mxCell>
                <mxCell id="17" value="Customer&lt;br&gt;Example&lt;br&gt;(SubApp)" style="whiteSpace=wrap;html=1;aspect=fixed;fillColor=#f0a30a;strokeColor=#BD7000;fontColor=#000000;" parent="1" vertex="1">
                    <mxGeometry x="560" y="-740" width="96.75" height="96.75" as="geometry"/>
                </mxCell>
                <mxCell id="18" value="HostApp &amp;amp; Examples" style="text;html=1;strokeColor=none;fillColor=none;align=center;verticalAlign=middle;whiteSpace=wrap;rounded=0;" parent="1" vertex="1">
                    <mxGeometry x="580" y="-780" width="120" height="20" as="geometry"/>
                </mxCell>
                <mxCell id="19" value="BookStore Host&lt;br&gt;Config" style="text;html=1;strokeColor=none;fillColor=none;align=center;verticalAlign=middle;whiteSpace=wrap;rounded=0;" parent="1" vertex="1">
                    <mxGeometry x="110" y="-995" width="136.5" height="40" as="geometry"/>
                </mxCell>
                <mxCell id="20" value="" style="endArrow=classic;html=1;entryX=0.4;entryY=-0.033;entryDx=0;entryDy=0;entryPerimeter=0;exitX=0.5;exitY=1;exitDx=0;exitDy=0;" parent="1" source="5" target="14" edge="1">
                    <mxGeometry width="50" height="50" relative="1" as="geometry">
                        <mxPoint x="120" y="-820" as="sourcePoint"/>
                        <mxPoint x="138.99" y="-883" as="targetPoint"/>
                    </mxGeometry>
                </mxCell>
                <mxCell id="65" value="Generate" style="edgeLabel;html=1;align=center;verticalAlign=middle;resizable=0;points=[];" parent="20" vertex="1" connectable="0">
                    <mxGeometry x="-0.3773" y="3" relative="1" as="geometry">
                        <mxPoint x="-51" y="10" as="offset"/>
                    </mxGeometry>
                </mxCell>
                <mxCell id="21" value="" style="edgeStyle=none;html=1;entryX=0.5;entryY=0;entryDx=0;entryDy=0;exitX=0.5;exitY=1;exitDx=0;exitDy=0;" parent="1" source="5" target="16" edge="1">
                    <mxGeometry relative="1" as="geometry">
                        <mxPoint x="312.0250000000001" y="-741.0250000000001" as="targetPoint"/>
                        <mxPoint x="390" y="-830" as="sourcePoint"/>
                    </mxGeometry>
                </mxCell>
                <mxCell id="67" value="Generate" style="edgeLabel;html=1;align=center;verticalAlign=middle;resizable=0;points=[];" parent="21" vertex="1" connectable="0">
                    <mxGeometry x="-0.0847" y="-1" relative="1" as="geometry">
                        <mxPoint as="offset"/>
                    </mxGeometry>
                </mxCell>
                <mxCell id="22" value="" style="edgeStyle=none;html=1;entryX=0.5;entryY=0;entryDx=0;entryDy=0;exitX=0.5;exitY=1;exitDx=0;exitDy=0;" parent="1" source="5" target="17" edge="1">
                    <mxGeometry relative="1" as="geometry">
                        <mxPoint x="465.5" y="-737.5" as="targetPoint"/>
                        <mxPoint x="400.27529249827944" y="-810" as="sourcePoint"/>
                    </mxGeometry>
                </mxCell>
                <mxCell id="68" value="Generate" style="edgeLabel;html=1;align=center;verticalAlign=middle;resizable=0;points=[];" parent="22" vertex="1" connectable="0">
                    <mxGeometry x="-0.1831" y="-2" relative="1" as="geometry">
                        <mxPoint as="offset"/>
                    </mxGeometry>
                </mxCell>
                <mxCell id="44" value="Cart Example&lt;br&gt;Config" style="text;html=1;strokeColor=none;fillColor=none;align=center;verticalAlign=middle;whiteSpace=wrap;rounded=0;" parent="1" vertex="1">
                    <mxGeometry x="428" y="-1000" width="92" height="40" as="geometry"/>
                </mxCell>
                <mxCell id="45" value="Customer Example&lt;br&gt;Config" style="text;html=1;strokeColor=none;fillColor=none;align=center;verticalAlign=middle;whiteSpace=wrap;rounded=0;" parent="1" vertex="1">
                    <mxGeometry x="570" y="-1000" width="110" height="40" as="geometry"/>
                </mxCell>
                <mxCell id="46" value="" style="endArrow=classic;html=1;exitX=0.43;exitY=1.1;exitDx=0;exitDy=0;exitPerimeter=0;entryX=0.472;entryY=0;entryDx=0;entryDy=0;entryPerimeter=0;" parent="1" source="6" target="5" edge="1">
                    <mxGeometry width="50" height="50" relative="1" as="geometry">
                        <mxPoint x="156.75" y="-940" as="sourcePoint"/>
                        <mxPoint x="390" y="-890" as="targetPoint"/>
                    </mxGeometry>
                </mxCell>
                <mxCell id="47" value="" style="endArrow=classic;html=1;entryX=0.45;entryY=0;entryDx=0;entryDy=0;entryPerimeter=0;" parent="1" source="44" target="5" edge="1">
                    <mxGeometry width="50" height="50" relative="1" as="geometry">
                        <mxPoint x="333" y="-947" as="sourcePoint"/>
                        <mxPoint x="393.09278350515456" y="-880" as="targetPoint"/>
                    </mxGeometry>
                </mxCell>
                <mxCell id="48" value="" style="endArrow=classic;html=1;entryX=0.468;entryY=-0.033;entryDx=0;entryDy=0;entryPerimeter=0;exitX=0.5;exitY=1;exitDx=0;exitDy=0;" parent="1" source="45" target="5" edge="1">
                    <mxGeometry width="50" height="50" relative="1" as="geometry">
                        <mxPoint x="465.33333333333326" y="-950" as="sourcePoint"/>
                        <mxPoint x="400" y="-880" as="targetPoint"/>
                    </mxGeometry>
                </mxCell>
                <mxCell id="50" value="Module (domain)" style="text;html=1;strokeColor=none;fillColor=none;align=center;verticalAlign=middle;whiteSpace=wrap;rounded=0;" parent="1" vertex="1">
                    <mxGeometry x="561" y="-550" width="110" height="20" as="geometry"/>
                </mxCell>
                <mxCell id="55" value="Book Product &lt;br&gt;Module" style="rounded=0;whiteSpace=wrap;html=1;fillColor=#6d8764;strokeColor=#3A5431;fontColor=#ffffff;" parent="1" vertex="1">
                    <mxGeometry x="252.5" y="-520" width="117.5" height="60" as="geometry"/>
                </mxCell>
                <mxCell id="57" value="Cart Module" style="rounded=0;whiteSpace=wrap;html=1;fillColor=#6d8764;strokeColor=#3A5431;fontColor=#ffffff;" parent="1" vertex="1">
                    <mxGeometry x="415.25" y="-520" width="117.5" height="60" as="geometry"/>
                </mxCell>
                <mxCell id="58" value="Customer Module" style="rounded=0;whiteSpace=wrap;html=1;fillColor=#6d8764;strokeColor=#3A5431;fontColor=#ffffff;" parent="1" vertex="1">
                    <mxGeometry x="566.25" y="-520" width="117.5" height="60" as="geometry"/>
                </mxCell>
            </root>
        </mxGraphModel>
    </diagram>
</mxfile>